<svg height="126.85705mm" viewBox="0 0 126.85705 126.85705" width="126.85705mm" xmlns="http://www.w3.org/2000/svg"><g transform="translate(-79.158156 -22.130176)"><path d="m119.6309 97.181947c9.09911-6.434262 27.46984-3.198364 37.34262 9.586933 9.87278 12.78529 10.58105 28.48407-1.05559 36.71269-11.63663 8.22861-27.46984 3.19834-37.34262-9.58695-9.87276-12.78529-8.04351-30.27842 1.05559-36.712673z" fill="#ff6b00" stroke="#000" stroke-width="3"/><path d="m150.56304 128.29049s-.65955-21.32485-26.38855-32.712164" fill="none" stroke="#000" stroke-linecap="round" stroke-width="3"/><path d="m134.94646 50.903224c-11.093 1.455466-20.29385 6.456976-24.56188 14.329977-2.13401 3.9365-3.22045 8.316487-2.49609 12.671874.72436 4.355388 3.74469 8.176913 7.89648 10.917969 5.3007 3.499579 9.72495 6.644353 10.5917 8.248873 5.39251 2.78952 6.55898 3.044283 17.53217 12.337173-.28993-4.88874-3.44484-9.906093-5.39248-13.614619-2.56883-4.755395-4.82516-8.426122-17.85444-15.701896-2.03075-1.134006-2.64414-2.240419-2.9082-3.828124-.26406-1.587706.11306-4.918462 1.42187-7.33275 2.61762-4.828577 6.87704-6.825159 16.53711-9.718032z"/><g stroke="#000" stroke-linejoin="round"><path d="m154.57208 48.644164c-7.36913 9.575659-4.81085 17.907059 3.47451 23.252447 12.64479 8.157923 32.87414 4.543584 32.87414 4.543584s.97708-15.182826-3.74177-24.054258c-6.68173-12.561667-25.23775-13.317432-32.60688-3.741773z" stroke-width="3"/><path d="m138.53591 53.722284c.45686 5.939159 1.50108 8.100624 2.13816 19.510678.51446 9.213978 1.06908 16.570709 1.06908 16.570709l9.35443-12.027128 8.81989 11.759858s.53454-19.243405-2.40543-33.40869" fill="#ff6b00" stroke-linecap="round" stroke-width="3"/><path d="m135.70157 44.409301c2.15761-12.010918-2.02968-17.759724-11.92438-20.296828-15.39486-3.947402-29.684111 14.461491-29.684111 14.461491s3.175335 6.788732 14.207781 15.222621c13.97178 10.68091 25.24309 2.623633 27.40071-9.387284z" stroke-width="2.847803"/><path d="m134.65968 54.577136-7.14802 2.457518.10835 7.557903-7.22736-2.213329-4.35476 6.178161-4.5461-6.038759-7.15451 2.438572-.12838-7.557589-7.221477-2.232468 4.338377-6.189677-4.530083-6.050782 7.148023-2.457518-.10835-7.557903 7.22736 2.21333 4.35476-6.178162 4.5461 6.03876 7.15451-2.438573.12838 7.557589 7.22148 2.232469-4.33838 6.189676z" fill="#ff6b00" stroke-linecap="round" stroke-width="3" transform="matrix(.98228167 -.18741056 .18741056 .98228167 22.671098 19.282716)"/></g></g></svg>